<svg width="71" height="70" viewBox="0 0 71 70" fill="none" xmlns="http://www.w3.org/2000/svg">
<g clip-path="url(#clip0_429_54)">
<path d="M14.7429 67.942C13.8439 67.942 12.9972 67.583 12.3774 66.935C9.09541 63.5637 -1.25694 51.3921 3.11619 36.4709C3.52644 35.0699 4.83576 34.0891 6.29347 34.0891C6.51169 34.0891 6.72118 34.1067 6.93067 34.1504C7.69881 34.2993 8.4844 34.3781 9.26999 34.3781C11.1554 34.3781 13.1456 33.9403 15.1794 33.0821C15.5896 32.907 16.0261 32.8194 16.4712 32.8194C17.3441 32.8194 18.1995 33.1785 18.8193 33.8002C18.8891 33.8702 18.959 33.9403 19.0201 34.0191C19.3517 33.8615 19.6922 33.6951 20.0151 33.52C20.9055 33.0471 21.7347 32.5305 22.4941 31.9963C23.3757 28.6863 24.6763 25.5165 25.942 22.4517L26.5094 21.0856C26.5268 21.0243 26.5181 20.9718 26.5094 20.9105C26.4744 20.3326 26.2562 19.5883 26.0642 18.9315C25.8634 18.2835 25.6365 17.6268 25.4095 16.9613L25.2524 16.5147C25.1389 16.1732 25.0429 15.858 24.9382 15.5427C24.0129 12.7319 22.7385 8.87898 24.5017 5.53397C24.5192 5.5077 24.5279 5.48143 24.5454 5.45517C25.7761 3.36235 28.1591 2.05762 30.769 2.05762C31.7379 2.05762 32.6719 2.24151 33.536 2.60052C35.4651 3.3711 37.1585 4.9035 38.5464 7.15394C40.7635 10.928 41.6451 15.175 42.0204 18.9841C43.2774 18.231 44.5605 17.5918 45.8698 17.0664C49.3613 15.6828 52.8529 14.9736 56.2396 14.9736C57.3569 14.9736 58.4655 15.0524 59.5391 15.21C59.5915 15.21 59.6526 15.2275 59.705 15.245C62.4458 15.8842 64.7153 18.1347 65.7802 21.287C66.4436 23.3186 66.3039 25.3063 65.4398 26.8387C66.2777 27.4517 66.9586 28.2485 67.4299 29.2117C68.5821 31.5848 68.1893 34.562 66.365 37.3904C66.3476 37.4166 66.3301 37.4429 66.3127 37.4604C67.0284 38.1347 67.6394 38.949 68.0846 39.8772C69.0971 41.9525 69.2019 44.2555 68.3639 46.1907C68.1282 46.7074 67.814 47.1802 67.4474 47.5918C67.8664 48.3186 68.1544 49.1242 68.2679 49.956C69.1233 54.9823 62.7338 57.1277 60.6215 57.837C58.2996 58.555 56.0563 58.9928 53.9178 59.1592C51.1682 60.0348 48.1829 60.4727 45.0406 60.4727C42.1514 60.4727 39.2621 60.1049 36.4602 59.3694C36.2594 59.3168 36.0761 59.238 35.9103 59.1417C35.7531 59.1329 35.5698 59.1066 35.4302 59.0629C33.8765 58.6513 32.3838 57.9508 30.8825 56.9175C30.8388 56.9175 30.7865 56.9175 30.7341 56.9175C30.6643 56.9438 30.5944 56.9613 30.5159 56.97C29.5819 57.1452 28.7265 57.3641 27.9496 57.618V57.6443C27.8798 58.7126 27.3037 59.6846 26.3959 60.2538C23.9955 61.7511 19.5874 64.632 16.9775 67.0576C16.3578 67.6356 15.5547 67.9508 14.7168 67.9508L14.7429 67.942Z" fill="#FF69CC"/>
<path d="M30.7777 4.10683C31.4586 4.10683 32.1394 4.22942 32.7592 4.49212C34.5311 5.2014 35.8404 6.65499 36.8093 8.23117C39.3669 12.5919 40.0303 17.7408 40.2223 22.7058C42.1775 21.1821 44.3336 19.8949 46.638 18.9667C49.6756 17.7583 52.9576 17.0228 56.2396 17.0228C57.2434 17.0228 58.2472 17.0928 59.2423 17.2329C61.538 17.7671 63.1179 19.7986 63.8424 21.9352C64.3225 23.3975 64.34 25.2189 63.2052 26.4361C62.7426 26.9352 62.1403 27.2417 61.5467 27.5306C63.2401 27.7058 64.7764 28.4413 65.5969 30.1051C66.5658 32.1103 65.7889 34.5009 64.6454 36.2609C64.3312 36.6988 63.9821 37.1366 63.406 37.4168C63.2401 37.4869 62.9783 37.5919 62.7251 37.697C65.7365 38.4764 67.7791 42.3643 66.496 45.3678C66.173 46.0858 65.5532 46.69 64.8288 46.9965C64.6629 47.0578 64.5058 47.1016 64.3399 47.1541C65.3699 47.8546 66.0944 49.0105 66.2515 50.2539C66.8277 53.4151 62.3323 55.0876 59.9843 55.8757C57.8457 56.5324 55.6461 56.9877 53.4202 57.1191C53.4028 57.1366 53.394 57.1629 53.3591 57.1716C50.723 58.0123 47.8949 58.4063 45.058 58.4063C42.2212 58.4063 39.5676 58.0385 36.9926 57.373C36.8006 57.3205 36.8006 57.0928 36.9228 56.9965C36.6959 56.944 36.4602 56.8914 36.2332 56.8301C36.2332 56.8564 36.2507 56.8914 36.242 56.9177C36.2158 57.014 36.1285 57.0753 36.0325 57.0753C36.015 57.0753 35.9976 57.0753 35.9714 57.0753C34.47 56.6813 33.1083 55.972 31.8601 55.0876C31.7728 55.035 31.6768 54.9912 31.5895 54.9387C31.3189 54.8774 31.0134 54.8511 30.6905 54.8511C30.5246 54.8511 30.3588 54.8511 30.1755 54.8686C30.1755 54.9037 30.1493 54.9387 30.1143 54.9475C28.4995 55.2539 26.9022 55.7093 25.4095 56.4011C25.427 56.4098 25.4357 56.4273 25.4532 56.4361C26.1253 56.9877 26.0642 58.0385 25.331 58.5026C22.9218 60.0088 18.3479 62.986 15.6071 65.5429C15.3627 65.7706 15.0485 65.8844 14.7429 65.8844C14.4112 65.8844 14.0883 65.7531 13.8439 65.4991C10.7452 62.303 1.02128 50.9019 5.08017 37.049C5.23729 36.4974 5.74356 36.1471 6.29347 36.1471C6.37203 36.1471 6.45932 36.1471 6.53788 36.1734C7.43694 36.3485 8.35347 36.4361 9.26999 36.4361C11.4522 36.4361 13.6955 35.9457 15.9737 34.9825C16.1395 34.9124 16.3054 34.8774 16.4712 34.8774C17.1434 34.8774 17.7369 35.4116 17.7369 36.1471C17.7369 36.3398 17.7369 36.5499 17.7369 36.7601C18.8455 36.366 19.9278 35.8932 20.9666 35.3415C22.1275 34.7198 23.2622 34.0105 24.2922 33.2137C25.1477 29.7373 26.5443 26.3573 27.8885 23.0823L28.3948 21.8651C28.5519 21.4974 28.5781 21.1821 28.5519 20.7881C28.4995 19.9912 28.2638 19.1506 28.0194 18.3275C27.7663 17.5044 27.4695 16.6725 27.1902 15.8406C26.2911 13.0123 24.7898 9.36953 26.3086 6.48862C27.2164 4.9387 29.0058 4.09807 30.769 4.09807M65.3176 45.3327C65.5707 44.9825 65.7278 44.5797 65.7977 44.1506C65.6667 44.5709 65.4921 44.965 65.3176 45.3327ZM59.8708 55.1664C61.3896 54.6235 64.1916 53.5201 65.1343 51.9264C63.9297 53.1261 61.7213 54.3082 59.8708 55.1664ZM43.1552 57.6445C41.8022 57.6445 40.4231 57.5657 39.0352 57.3818C40.5103 57.6445 42.0117 57.7496 43.5043 57.7496C45.9571 57.7496 48.4186 57.4694 50.8452 57.1191C50.7143 57.1103 50.5921 57.0928 50.4699 57.0841C48.3313 57.3643 45.8087 57.6532 43.1639 57.6532M30.7777 0C27.4433 0 24.3795 1.69002 22.7909 4.41331C22.756 4.46585 22.7298 4.51839 22.7036 4.57093C20.5301 8.69527 22.0228 13.2049 23.0091 16.1909C23.1139 16.4974 23.2099 16.8039 23.3059 17.0928C23.3146 17.1191 23.3233 17.1541 23.3321 17.1804L23.4892 17.627C23.7161 18.2925 23.9344 18.9229 24.1264 19.5447C24.205 19.8161 24.3708 20.3415 24.4406 20.7443L24.1264 21.5061L24.0653 21.6637C22.8694 24.5709 21.6387 27.5569 20.7396 30.718C20.2945 31.0158 19.8144 31.296 19.3168 31.5762C18.4701 31.0508 17.4838 30.7618 16.4887 30.7618C15.7729 30.7618 15.0659 30.9019 14.4025 31.1821C12.6131 31.9352 10.8935 32.3205 9.27872 32.3205C8.62406 32.3205 7.9694 32.2592 7.3322 32.1366C6.99177 32.0666 6.64262 32.0403 6.3022 32.0403C3.9367 32.0403 1.82433 33.6252 1.16094 35.8932C-3.52642 51.8827 7.44567 64.7986 10.9197 68.3713C11.9235 69.4046 13.3201 69.9912 14.7517 69.9912C16.1134 69.9912 17.4052 69.4834 18.409 68.5464C20.2246 66.8564 23.5416 64.4658 27.5132 61.979C28.5432 61.331 29.32 60.359 29.7216 59.2294C29.966 59.1681 30.2104 59.1068 30.4722 59.0543C31.9387 59.9737 33.4138 60.6217 34.9676 61.0333C35.0898 61.0683 35.2207 61.0946 35.3516 61.1121C35.5349 61.1909 35.7182 61.2522 35.9103 61.3135C35.9365 61.3135 35.9626 61.331 35.9888 61.331C38.9653 62.1103 42.0204 62.4956 45.0842 62.4956C48.3488 62.4956 51.465 62.049 54.3542 61.1559C56.5713 60.972 58.8757 60.5079 61.215 59.7811C61.25 59.7723 61.2761 59.7636 61.3111 59.7461C68.041 57.4781 71.0786 54.0718 70.3279 49.606C70.2406 48.9755 70.0835 48.3713 69.8653 47.7846C70.0049 47.5482 70.1359 47.303 70.2493 47.0578C70.2581 47.0315 70.2755 47.0053 70.2842 46.979C71.3579 44.4834 71.2357 41.5587 69.9613 38.9492C69.647 38.31 69.2804 37.7145 68.8702 37.1716C70.4239 34.1068 70.5898 30.937 69.3066 28.2925C68.9313 27.5306 68.4687 26.8476 67.9187 26.2522C68.4337 24.5447 68.3988 22.5919 67.7616 20.6392L67.7442 20.5954C66.4436 16.7688 63.6242 14.0105 60.185 13.2137C60.0716 13.1874 59.9668 13.1699 59.8533 13.1524C58.6837 12.986 57.4791 12.8984 56.2571 12.8984C52.6084 12.8984 48.8725 13.6515 45.1453 15.1313C44.6565 15.3327 44.1677 15.5429 43.6876 15.7706C43.1464 12.5744 42.1688 9.22067 40.3532 6.13835C40.3358 6.11208 40.3183 6.08581 40.3096 6.05954C38.686 3.43257 36.6697 1.61996 34.3129 0.674256C33.1956 0.227671 32.0085 0 30.7777 0Z" fill="#FF69CC"/>
<path d="M29.0145 5.06153C33.7892 2.71477 39.8295 8.36276 40.0564 23.7568C40.4841 23.1701 41.2872 22.4258 42.2386 22.1981C47.5196 17.3207 57.7322 17.6272 57.6188 17.3558C62.7862 17.4696 66.3999 24.6938 60.4469 27.8374C62.0966 27.636 64.4883 27.7936 65.5445 30.692C66.8887 34.4135 61.861 38.0125 61.861 38.0125C61.861 38.0125 65.3263 38.5291 66.0333 41.6552C66.557 43.9757 64.4883 47.0055 64.0432 47.1281C64.0432 47.1281 66.4785 48.7043 65.9897 50.6395C65.3176 53.3102 56.7895 56.4801 56.7895 56.4801C56.7895 56.4801 54.136 56.5939 50.4699 57.0755C45.2326 57.7673 37.7695 58.5116 31.5982 54.9302C27.356 53.9932 16.96 60.6832 16.96 60.6832C16.96 60.6832 16.3316 62.995 12.2814 54.002C6.84337 41.9179 9.35727 38.1351 9.35727 38.1351C15.9562 40.044 24.6065 33.6517 24.6065 33.6517C24.6065 33.6517 26.8672 27.5484 28.8836 21.9354C29.7652 19.4836 22.5814 8.2139 29.0058 5.05278L29.0145 5.06153Z" fill="#F5F5F5"/>
<path d="M37.1149 56.9617C42.3958 58.4065 47.9386 57.5921 53.2544 56.7603C53.5075 56.7077 53.621 57.093 53.3679 57.1806C48.183 58.8356 42.2474 58.7393 37.0014 57.3732C36.7308 57.2944 36.8355 56.8829 37.1149 56.9617Z" fill="#3C3C3B"/>
<path d="M51.0809 22.2769C48.5321 21.8828 45.3374 21.8741 43.7138 24.1945C42.9806 25.2628 42.7798 26.6551 42.9631 27.9599C43.1115 28.8618 43.4083 29.8951 44.1153 30.4555C44.3685 30.6306 44.6041 30.5518 44.8835 30.5693C46.2277 30.5606 47.6068 30.3679 48.9685 30.149C50.3302 29.9213 51.6832 29.6324 53.0274 29.3084C55.6897 28.6429 58.3782 27.8723 60.8484 26.7077C61.4071 26.4187 62.0181 26.1648 62.4458 25.7094C63.275 24.8075 63.2052 23.4065 62.8299 22.2681C62.245 20.5255 60.8833 18.748 59.0416 18.3276C58.4131 18.2138 57.7061 18.17 57.0514 18.1525C50.8976 17.9949 44.77 20.2278 40.0739 24.2121C39.7422 24.5098 39.1661 24.2471 39.1748 23.8005C39.0439 18.6604 38.5202 13.2751 35.9103 8.79175C35.0548 7.39945 33.9026 6.09472 32.3838 5.48176C30.6032 4.74621 28.2464 5.3329 27.2251 7.01416C25.6365 9.96513 28.1242 14.9739 28.9709 18.0474C29.32 19.3259 29.8612 20.9021 29.2938 22.2331C28.9621 23.0124 28.1067 25.0702 27.7576 25.8758C24.2486 34.0982 21.9878 42.7847 28.002 50.473C30.1231 53.1613 32.7417 55.7007 36.111 56.6464C36.2245 56.6814 36.2943 56.804 36.2594 56.9178C36.2245 57.0317 36.111 57.1017 35.9976 57.0667C32.506 56.1473 29.7477 53.5991 27.5132 50.8583C25.2873 48.0649 23.8383 44.6149 23.5677 41.0334C23.0615 34.7637 25.5754 28.7567 27.906 23.0825L28.4122 21.8653C28.5693 21.4975 28.5955 21.1823 28.5693 20.7882C28.517 19.9914 28.2813 19.1508 28.0369 18.3276C27.7838 17.5045 27.487 16.6727 27.2077 15.8408C26.3086 13.0124 24.8072 9.36968 26.326 6.48877C27.583 4.34341 30.5333 3.55532 32.7766 4.48352C34.5486 5.1928 35.8579 6.64639 36.8268 8.22257C39.5764 12.8986 40.135 18.4853 40.2747 23.783L39.3756 23.3714C41.5491 21.5413 44.0106 20.0264 46.6554 18.9581C50.627 17.3819 55.0089 16.6114 59.2685 17.2331C61.5642 17.7672 63.1441 19.7987 63.8686 21.9354C64.3487 23.3977 64.3661 25.2191 63.2314 26.4362C62.6989 27.0054 61.9832 27.3294 61.311 27.6621C57.4006 29.4222 53.298 30.3592 49.1169 31.0509C47.7203 31.2611 46.3237 31.4362 44.8835 31.4275C44.4732 31.4275 43.9582 31.4012 43.644 31.1385C42.2212 29.9476 41.9593 27.5658 42.291 25.8495C42.7187 23.5203 44.6391 21.9704 46.9173 21.6814C48.3488 21.4625 49.7803 21.5938 51.1595 21.8565C51.4213 21.9091 51.369 22.3206 51.0896 22.2769H51.0809Z" fill="#3C3C3B"/>
<path d="M45.9571 31.3925C43.2512 31.7515 41.8109 33.6517 42.3346 36.3663C42.5005 37.706 43.1115 39.1246 44.447 39.6149C46.219 40.2629 48.279 39.7988 50.1469 39.6324C52.1109 39.396 54.0661 39.0895 56.0127 38.713C58.4305 38.2314 60.831 37.671 63.0917 36.7078C64.1915 36.0072 64.6891 34.4486 64.9335 33.1876C65.5445 29.9652 63.0917 28.2664 60.089 28.5116C59.1463 28.5729 58.2036 28.7655 57.2783 29.0458C56.7459 29.2034 56.4927 28.4153 57.0077 28.2226C59.8359 27.1281 64.0519 26.9442 65.6231 30.1228C66.592 32.1281 65.8151 34.5186 64.6716 36.2787C64.3574 36.7165 64.0082 37.1543 63.4321 37.4346C63.083 37.5922 62.3672 37.8636 62.0093 37.9862C58.1861 39.2472 54.2407 39.9564 50.2691 40.4818C46.4023 40.9634 42.2299 41.5326 41.6625 36.4538C41.3396 34.2121 42.1775 32.1018 44.447 31.3663C44.9358 31.1999 45.4421 31.0948 45.9658 31.0773C46.0531 31.0773 46.1229 31.1386 46.1229 31.2261C46.1229 31.3137 46.0618 31.3838 45.9746 31.3838L45.9571 31.3925Z" fill="#3C3C3B"/>
<path d="M60.4818 37.7236C64.6018 36.594 68.1021 41.6641 66.5047 45.3768C66.1817 46.0949 65.562 46.6991 64.8375 47.0056C63.7377 47.4084 62.6204 47.601 61.4944 47.8725C57.0863 48.7919 52.5823 49.6588 48.052 49.3436C47.118 49.2472 46.1841 49.0984 45.3199 48.6693C43.7924 47.6886 42.9544 45.3593 43.2599 43.5905C43.6614 41.6465 45.6952 40.6746 47.4585 40.2718C47.5632 40.2455 47.6592 40.3155 47.6854 40.4119C47.7116 40.5169 47.6418 40.622 47.537 40.6395C46.6991 40.8409 45.8698 41.1912 45.1628 41.6816C43.0941 43.0388 43.5218 45.4907 44.77 47.2683C46.5245 50.2805 58.1774 47.6185 61.2849 46.9355C62.149 46.7341 63.0219 46.5152 63.8686 46.2788C64.2788 46.1737 64.5931 46.0511 64.9073 45.8059C66.4872 44.4662 65.8588 41.883 64.7938 40.3681C63.8599 39.0021 62.28 38.1965 60.6128 38.4416C60.1589 38.4942 60.0367 37.8374 60.4731 37.7236H60.4818Z" fill="#3C3C3B"/>
<path d="M51.5435 49.0457C49.6843 49.6149 47.3712 50.8145 47.3974 53.0474C47.4323 54.3784 48.3139 55.6919 49.4748 56.3049C50.0771 56.6201 50.7929 56.5763 51.465 56.6201C54.2756 56.6551 57.1125 56.0947 59.7748 55.2191C61.6951 54.5361 65.9984 52.8811 65.4136 50.3942C65.2477 49.2646 64.5582 48.2839 63.5544 47.7585C63.406 47.6797 63.2488 47.6096 63.1266 47.5746C62.5418 47.3732 62.8211 46.5063 63.4147 46.6814C64.9422 47.2156 66.0682 48.6692 66.269 50.2628C66.8451 53.424 62.3498 55.0965 60.0017 55.8846C57.2347 56.7427 54.3542 57.2506 51.4562 57.163C50.9063 57.1368 50.3477 57.1017 49.7978 56.9791C48.8725 56.6989 48.1306 55.9809 47.633 55.1928C46.219 52.9599 47.2141 50.6744 49.4399 49.5361C50.0858 49.1858 50.7667 48.9319 51.465 48.7305C51.5523 48.7042 51.6395 48.7567 51.6657 48.8355C51.6919 48.9231 51.6396 49.0107 51.561 49.0369L51.5435 49.0457Z" fill="#3C3C3B"/>
<path d="M40.231 23.6165C41.6102 28.6691 40.8944 34.2645 38.2147 38.7566C38.1099 38.9405 37.8132 38.8004 37.9092 38.599C38.7908 36.909 39.4367 35.1139 39.7859 33.24C40.1699 31.0771 40.1961 28.8442 39.847 26.6726C39.6986 25.7619 39.4891 24.7987 39.1923 23.9493C38.9654 23.2488 40.0041 22.9073 40.231 23.6165Z" fill="#3C3C3B"/>
<path d="M24.8945 33.643C20.5563 37.2157 14.0883 39.615 9.1216 38.6956C9.20889 38.6693 9.17397 38.6868 9.20889 38.6693C8.37093 39.8602 9.16525 43.1614 9.47075 44.5887C10.5619 49.0108 13.9835 60.0003 17.6933 62.3558L17.0561 62.7761C17.0735 62.7148 17.091 62.6448 17.1172 62.601C19.1335 59.2823 22.6163 56.6378 26.2824 55.4294C27.5219 55.0178 28.8225 54.7551 30.1231 54.7726C30.1754 54.7726 30.2104 54.8164 30.2104 54.869C30.2104 54.9127 30.1754 54.9478 30.1405 54.9565C27.6528 55.4294 25.2088 56.2437 23.1313 57.7323C21.1237 59.1334 19.2994 60.911 18.0686 63.0388C18.0686 63.0388 18.0861 62.995 18.0861 62.9775L17.4489 63.3978C14.324 62.0669 11.5395 54.58 10.4309 51.4276C9.58423 48.8795 6.2411 39.5537 8.67643 37.7849C8.78991 37.7148 8.96448 37.6448 9.13033 37.6711C10.4658 37.8987 11.8275 37.96 13.1892 37.8199C15.9301 37.566 18.5662 36.6378 21.0015 35.3593C22.2148 34.7113 23.4106 33.967 24.4755 33.1264C24.816 32.8462 25.2699 33.3453 24.9207 33.6518L24.8945 33.643Z" fill="#3C3C3B"/>
<path d="M17.7456 36.156C17.7456 40.8233 18.121 50.438 25.4706 56.445C26.1427 56.9967 26.0816 58.0475 25.3484 58.5116C22.9393 60.0177 18.3654 62.9949 15.6246 65.5518C15.1183 66.0247 14.3327 66.0072 13.8526 65.5168C10.7539 62.3207 1.03001 50.9196 5.0889 37.0667C5.2722 36.4363 5.9094 36.0597 6.55534 36.1911C9.60168 36.7865 12.7441 36.3662 15.9912 35.0002C16.8291 34.6499 17.7631 35.2541 17.7544 36.1736L17.7456 36.156Z" fill="#3C3C3B"/>
<path d="M14.9699 62.697C16.257 62.697 17.3005 61.6502 17.3005 60.359C17.3005 59.0678 16.257 58.021 14.9699 58.021C13.6827 58.021 12.6393 59.0678 12.6393 60.359C12.6393 61.6502 13.6827 62.697 14.9699 62.697Z" fill="#E6963B"/>
<path d="M15.7729 60.1402C15.7729 60.1402 16.1657 59.8249 15.7816 59.4309C15.5372 59.177 15.127 59.282 15.127 59.282L15.0397 58.8354L14.7691 58.888L14.8477 59.2995L14.6382 59.3433L14.5596 58.9318L14.2803 58.9843L14.3676 59.4309L13.8089 59.536L13.8613 59.8337C13.8613 59.8337 14.2017 59.7023 14.2366 59.9125L14.4549 61.0684C14.4549 61.0684 14.4723 61.226 14.3414 61.261C14.2105 61.296 14.1668 61.2873 14.1668 61.2873V61.6288L14.7255 61.5237L14.8127 61.9878L15.0833 61.9353L14.996 61.4799L15.2317 61.4362L15.319 61.8827L15.5809 61.8302L15.5023 61.4099C15.5023 61.4099 16.0784 61.3486 16.2006 60.9983C16.3228 60.6481 16.2617 60.1927 15.7729 60.1577V60.1402ZM14.6993 59.6848C14.8826 59.6411 15.319 59.5447 15.3976 59.86C15.4761 60.1664 14.804 60.2277 14.804 60.2277L14.6993 59.6936V59.6848ZM14.9786 61.1384L14.8564 60.508C15.0659 60.4642 15.5809 60.3503 15.6769 60.7094C15.7729 61.0684 14.9786 61.1384 14.9786 61.1384Z" fill="#3C3C3B"/>
</g>
<defs>
<clipPath id="clip0_429_54">
<rect width="71" height="70" fill="white"/>
</clipPath>
</defs>
</svg>
