<?xml version="1.0" encoding="UTF-8"?><svg id="a" xmlns="http://www.w3.org/2000/svg" xmlns:xlink="http://www.w3.org/1999/xlink" viewBox="0 0 48 48"><defs><style>.d{fill:#f5f5f5;}.e{stroke-width:.39px;}.e,.f,.g,.h{stroke:#f5f5f5;}.e,.g{stroke-linecap:round;stroke-linejoin:round;}.e,.g,.i{fill:none;}.j{fill:#dd5eb9;}.k,.h{fill:#554fc1;}.l{clip-path:url(#b);}.m,.f{fill:#7062f1;}.n{clip-path:url(#c);}.f,.h{stroke-miterlimit:10;stroke-width:.98px;}.g{stroke-width:1.16px;}.o{fill:#ff69cc;}</style><clipPath id="b"><path class="m" d="M32.66,47.03c-.93,0-1.88-.44-2.6-1.2-2.18-2.3,2.24-7.58,2.94-8.37,2.49-4.39,2.15-9.74-1.04-15.89-2.61-5.06-6.63-9.54-9.51-12.05-2.91-2.53-6.94-2.53-9.88-2.53h-.5c-2.28,0-4.24,0-5.02-1.25-1.08-1.75-.72-2.94-.41-3.49,.45-.8,1.31-1.28,2.32-1.28,.55,0,1.11,.15,1.62,.42,.32,.17,.59,.39,.87,.62,.76,.61,1.54,1.23,3.44,1.23,.26,0,.54-.01,.82-.02,.32-.01,.65-.03,1.01-.03,3.03,0,6.81,1.01,13.8,8.34,4.91,5.15,6.79,11.14,7.51,15.26,.84,4.85,.36,8.77-.51,9.99-.15,.2-.3,.41-.45,.62-1.33,1.82-2.84,3.87-2.15,5.7,.41,1.1,.36,2.12-.16,2.87-.46,.66-1.22,1.04-2.1,1.04Z"/></clipPath><clipPath id="c"><path class="o" d="M38.83,17.4c-1.01,0-2.26-.43-2.44-1.64-.11-.76-.09-1.21,.1-1.6,.01-.03,.02-.05,.03-.07-.13-.05-.36-.1-.51-.13-.72-.15-1.21-.83-1.24-1.71-.03-.86,.42-1.86,1.5-2.16,.33-.09,.68-.14,1.03-.14,2.06,0,4.23,1.67,4.32,2.63v.05c.27,2.75-.71,3.96-1.58,4.5-.39,.24-.92,.27-1.21,.27h0Z"/></clipPath></defs><g><g><path class="g" d="M11.49,6.24l2.24,18.52c.12,1,.58,1.93,1.31,2.63l15.44,15"/><g><g><path class="m" d="M32.66,47.03c-.93,0-1.88-.44-2.6-1.2-2.18-2.3,2.24-7.58,2.94-8.37,2.49-4.39,2.15-9.74-1.04-15.89-2.61-5.06-6.63-9.54-9.51-12.05-2.91-2.53-6.94-2.53-9.88-2.53h-.5c-2.28,0-4.24,0-5.02-1.25-1.08-1.75-.72-2.94-.41-3.49,.45-.8,1.31-1.28,2.32-1.28,.55,0,1.11,.15,1.62,.42,.32,.17,.59,.39,.87,.62,.76,.61,1.54,1.23,3.44,1.23,.26,0,.54-.01,.82-.02,.32-.01,.65-.03,1.01-.03,3.03,0,6.81,1.01,13.8,8.34,4.91,5.15,6.79,11.14,7.51,15.26,.84,4.85,.36,8.77-.51,9.99-.15,.2-.3,.41-.45,.62-1.33,1.82-2.84,3.87-2.15,5.7,.41,1.1,.36,2.12-.16,2.87-.46,.66-1.22,1.04-2.1,1.04Z"/><g class="l"><path class="k" d="M5.07,3.29s1.66-.86,2.66-.27,1.27,2.58,6.85,2.39c6.05-.2,12.48,4.62,14.44,8.71,1.96,4.09-6.61-.73-6.61-.73,0,0-17.93,3.46-17.33-10.11Z"/></g></g><path class="d" d="M8.96,1.56c.44,0,.9,.11,1.34,.35,1.06,.58,1.76,1.92,4.59,1.92,.57,0,1.17-.05,1.84-.05,2.63,0,6.31,.75,13.38,8.16,8.86,9.29,8.44,22.43,6.94,24.51-1.5,2.08-3.56,4.51-2.67,6.86,.74,1.95-.35,3.12-1.72,3.12-.72,0-1.52-.32-2.18-1.02-1.92-2.03,2.99-7.64,2.99-7.64,6.02-10.5-5.12-23.91-10.64-28.71-3-2.61-7.05-2.67-10.26-2.67-.17,0-.33,0-.49,0-2.21,0-3.94-.03-4.52-.98-1.45-2.35-.19-3.88,1.41-3.88m0-1.16c-1.22,0-2.28,.59-2.82,1.57-.37,.67-.81,2.08,.42,4.08,.94,1.53,3.16,1.53,5.51,1.53h.49c2.85,0,6.76,0,9.5,2.39,4.81,4.19,16.04,17.2,10.45,27.16-.3,.35-1.37,1.64-2.26,3.13-1.61,2.7-1.82,4.71-.62,5.98,.83,.88,1.93,1.38,3.02,1.38s2.01-.47,2.58-1.29c.63-.91,.71-2.12,.23-3.41-.58-1.53,.77-3.37,2.07-5.15,.15-.21,.31-.42,.45-.62,1.13-1.57,1.39-5.96,.62-10.43-.73-4.2-2.65-10.31-7.66-15.56C23.8,3.65,19.89,2.62,16.73,2.62c-.37,0-.71,.01-1.03,.03-.28,.01-.55,.02-.8,.02-1.69,0-2.37-.54-3.08-1.1-.29-.23-.6-.48-.96-.68-.59-.32-1.25-.49-1.89-.49h0Z"/></g><g><g><path class="f" d="M12.13,27.2l-1.98,1.07c.88,.53-1.56,3.74,.19,2.88,3.22-1.59,1.8-3.95,1.8-3.95Z"/><path class="h" d="M10.15,28.2l1.97-1.1s-1.23-2.47-4.3-.6c-1.66,1.01,2.35,.67,2.33,1.7Z"/></g><line class="g" x1="37.46" y1="13.8" x2="9.13" y2="28.84"/><g><g><path class="o" d="M38.83,17.4c-1.01,0-2.26-.43-2.44-1.64-.11-.76-.09-1.21,.1-1.6,.01-.03,.02-.05,.03-.07-.13-.05-.36-.1-.51-.13-.72-.15-1.21-.83-1.24-1.71-.03-.86,.42-1.86,1.5-2.16,.33-.09,.68-.14,1.03-.14,2.06,0,4.23,1.67,4.32,2.63v.05c.27,2.75-.71,3.96-1.58,4.5-.39,.24-.92,.27-1.21,.27h0Z"/><g class="n"><path class="j" d="M36.37,14.31s.46-.47,1.09-.35-.29,1.79,1.27,1.84,1.41-4.46,3.1-3.84,1.52,5.19,1.52,5.19l-3.99,2.39s-5.64-3.47-2.99-5.24Z"/></g></g><path class="d" d="M37.3,10.54c1.93,0,3.69,1.58,3.74,2.1,.04,.47,.35,2.98-1.31,3.99-.19,.12-.53,.19-.9,.19-.78,0-1.74-.31-1.86-1.15-.1-.66-.08-1,.05-1.27,.36-.76-.27-.89-.9-1.02-1.03-.21-1.11-2.35,.3-2.73,.29-.08,.59-.12,.88-.12m0-1.16c-.41,0-.8,.05-1.18,.16-1.19,.33-1.97,1.43-1.93,2.74,.04,1.11,.67,2,1.59,2.24-.07,.44-.03,.9,.04,1.34,.19,1.28,1.4,2.14,3.01,2.14,.35,0,1-.05,1.51-.36,1.02-.62,2.16-2,1.86-5.05v-.04c-.09-.95-1.21-1.79-1.68-2.1-.59-.39-1.79-1.05-3.23-1.05h0Z"/></g></g></g><path class="e" d="M38.97,11.52c-.53-.33-1.2-.44-1.81-.29"/></g><rect class="i" width="48" height="48"/></svg>